<svg xmlns="http://www.w3.org/2000/svg" viewBox="0 0 64 64">
  <rect width="64" height="64" rx="15" fill="#f14b16"/>
  <path d="M18 28.5c-4.2-.7-7-4-7-8.1 0-4.6 3.7-8.3 8.3-8.3 1.4 0 2.7.3 3.8.9A11.5 11.5 0 0 1 32.2 9c4.5 0 8.4 2.6 10.3 6.3.8-.3 1.7-.4 2.6-.4 4.6 0 8.3 3.7 8.3 8.3 0 4.1-3 7.5-7 8.1v5.2H18v-8Z" fill="none" stroke="#fff" stroke-width="5" stroke-linecap="round" stroke-linejoin="round"/>
  <path d="M21 37v11.5c0 2.5 2 4.5 4.5 4.5h13c2.5 0 4.5-2 4.5-4.5V37" fill="none" stroke="#fff" stroke-width="5" stroke-linecap="round"/>
  <path d="M24 45h16" stroke="#0d2a20" stroke-width="4" stroke-linecap="round"/>
</svg>
